<mxfile host="app.diagrams.net" agent="Mozilla/5.0 (Windows NT 10.0; Win64; x64) AppleWebKit/537.36 (KHTML, like Gecko) Chrome/132.0.0.0 Safari/537.36 Edg/132.0.0.0" version="26.0.10">
  <diagram name="Page-1" id="3vIR2HpVTP0UQyiUp9Tj">
    <mxGraphModel dx="623" dy="349" grid="1" gridSize="10" guides="1" tooltips="1" connect="1" arrows="1" fold="1" page="1" pageScale="1" pageWidth="3300" pageHeight="4681" math="0" shadow="0">
      <root>
        <mxCell id="0" />
        <mxCell id="1" parent="0" />
        <mxCell id="pif8Dmov2KubNqpBboYz-14" value="Bus Simulation FMU" style="rounded=1;whiteSpace=wrap;html=1;verticalAlign=bottom;fontSize=14;spacing=17;strokeColor=#999999;strokeWidth=2;" parent="1" vertex="1">
          <mxGeometry x="1090" y="612" width="480" height="69" as="geometry" />
        </mxCell>
        <mxCell id="pif8Dmov2KubNqpBboYz-15" value="FMU" style="rounded=1;whiteSpace=wrap;html=1;verticalAlign=middle;fontSize=14;strokeColor=#999999;strokeWidth=2;" parent="1" vertex="1">
          <mxGeometry x="1212" y="493" width="110" height="55" as="geometry" />
        </mxCell>
        <mxCell id="pif8Dmov2KubNqpBboYz-16" value="" style="rounded=0;whiteSpace=wrap;html=1;fillColor=#cdeb8b;strokeColor=#000000;strokeWidth=1;" parent="1" vertex="1">
          <mxGeometry x="1245" y="543" width="10" height="10" as="geometry" />
        </mxCell>
        <mxCell id="pif8Dmov2KubNqpBboYz-17" value="FMU" style="rounded=1;whiteSpace=wrap;html=1;verticalAlign=middle;fontSize=14;strokeColor=#999999;strokeWidth=2;" parent="1" vertex="1">
          <mxGeometry x="1333" y="493" width="110" height="55" as="geometry" />
        </mxCell>
        <mxCell id="pif8Dmov2KubNqpBboYz-18" value="" style="rounded=0;whiteSpace=wrap;html=1;direction=south;fillColor=#cdeb8b;strokeColor=#000000;strokeWidth=1;" parent="1" vertex="1">
          <mxGeometry x="1350.5" y="543" width="10" height="10" as="geometry" />
        </mxCell>
        <mxCell id="pif8Dmov2KubNqpBboYz-19" value="" style="rounded=0;whiteSpace=wrap;html=1;fillColor=#cdeb8b;strokeColor=#000000;strokeWidth=1;" parent="1" vertex="1">
          <mxGeometry x="1366" y="543" width="10" height="10" as="geometry" />
        </mxCell>
        <mxCell id="pif8Dmov2KubNqpBboYz-20" value="FMU" style="rounded=1;whiteSpace=wrap;html=1;verticalAlign=middle;fontSize=14;strokeColor=#999999;strokeWidth=2;" parent="1" vertex="1">
          <mxGeometry x="1456" y="493" width="110" height="55" as="geometry" />
        </mxCell>
        <mxCell id="pif8Dmov2KubNqpBboYz-32" value="" style="rounded=0;whiteSpace=wrap;html=1;fillColor=#cdeb8b;strokeColor=#000000;strokeWidth=1;" parent="1" vertex="1">
          <mxGeometry x="1522" y="543" width="10" height="10" as="geometry" />
        </mxCell>
        <mxCell id="pif8Dmov2KubNqpBboYz-33" value="" style="endArrow=none;html=1;rounded=0;entryX=0.5;entryY=1;entryDx=0;entryDy=0;exitX=0.5;exitY=0;exitDx=0;exitDy=0;" parent="1" source="pif8Dmov2KubNqpBboYz-40" target="pif8Dmov2KubNqpBboYz-19" edge="1">
          <mxGeometry width="50" height="50" relative="1" as="geometry">
            <mxPoint x="1371" y="595" as="sourcePoint" />
            <mxPoint x="1464" y="603" as="targetPoint" />
          </mxGeometry>
        </mxCell>
        <mxCell id="pif8Dmov2KubNqpBboYz-34" value="" style="endArrow=none;html=1;rounded=0;exitX=0.5;exitY=0;exitDx=0;exitDy=0;entryX=0.5;entryY=0;entryDx=0;entryDy=0;edgeStyle=orthogonalEdgeStyle;" parent="1" source="pif8Dmov2KubNqpBboYz-39" target="pif8Dmov2KubNqpBboYz-24" edge="1">
          <mxGeometry width="50" height="50" relative="1" as="geometry">
            <mxPoint x="1403" y="608" as="sourcePoint" />
            <mxPoint x="1453" y="558" as="targetPoint" />
          </mxGeometry>
        </mxCell>
        <mxCell id="pif8Dmov2KubNqpBboYz-35" value="" style="rounded=0;whiteSpace=wrap;html=1;" parent="1" vertex="1">
          <mxGeometry x="1365.5" y="601" width="10" height="8.333333333333332" as="geometry" />
        </mxCell>
        <mxCell id="pif8Dmov2KubNqpBboYz-36" value="" style="rounded=0;whiteSpace=wrap;html=1;fillColor=#dae8fc;strokeColor=#6c8ebf;" parent="1" vertex="1">
          <mxGeometry x="1359" y="600" width="40" height="25" as="geometry" />
        </mxCell>
        <mxCell id="pif8Dmov2KubNqpBboYz-37" value="" style="endArrow=none;html=1;rounded=0;dashed=1;" parent="1" edge="1">
          <mxGeometry width="50" height="50" relative="1" as="geometry">
            <mxPoint x="1362.5" y="617.6666666666666" as="sourcePoint" />
            <mxPoint x="1396.5" y="617.6666666666666" as="targetPoint" />
          </mxGeometry>
        </mxCell>
        <mxCell id="pif8Dmov2KubNqpBboYz-38" value="" style="endArrow=none;html=1;rounded=0;exitX=0.5;exitY=1;exitDx=0;exitDy=0;dashed=1;" parent="1" source="pif8Dmov2KubNqpBboYz-40" edge="1">
          <mxGeometry width="50" height="50" relative="1" as="geometry">
            <mxPoint x="1370.44" y="609.3333333333334" as="sourcePoint" />
            <mxPoint x="1370.5" y="617.6666666666666" as="targetPoint" />
            <Array as="points">
              <mxPoint x="1370.44" y="617.6666666666666" />
            </Array>
          </mxGeometry>
        </mxCell>
        <mxCell id="pif8Dmov2KubNqpBboYz-39" value="" style="rounded=0;whiteSpace=wrap;html=1;fillColor=#cdeb8b;strokeColor=#36393d;" parent="1" vertex="1">
          <mxGeometry x="1383" y="594" width="10" height="10" as="geometry" />
        </mxCell>
        <mxCell id="pif8Dmov2KubNqpBboYz-40" value="" style="rounded=0;whiteSpace=wrap;html=1;fillColor=#cdeb8b;strokeColor=#36393d;" parent="1" vertex="1">
          <mxGeometry x="1365.5" y="594" width="10" height="10" as="geometry" />
        </mxCell>
        <mxCell id="pif8Dmov2KubNqpBboYz-41" value="" style="endArrow=none;html=1;rounded=0;exitX=0.5;exitY=1;exitDx=0;exitDy=0;dashed=1;" parent="1" edge="1">
          <mxGeometry width="50" height="50" relative="1" as="geometry">
            <mxPoint x="1388" y="604.3333333333334" as="sourcePoint" />
            <mxPoint x="1388" y="617.6666666666666" as="targetPoint" />
            <Array as="points">
              <mxPoint x="1387.94" y="617.6666666666666" />
            </Array>
          </mxGeometry>
        </mxCell>
        <mxCell id="pif8Dmov2KubNqpBboYz-42" value="" style="endArrow=none;html=1;rounded=0;entryX=0.5;entryY=1;entryDx=0;entryDy=0;exitX=0.5;exitY=0;exitDx=0;exitDy=0;" parent="1" source="pif8Dmov2KubNqpBboYz-76" target="pif8Dmov2KubNqpBboYz-32" edge="1">
          <mxGeometry width="50" height="50" relative="1" as="geometry">
            <mxPoint x="1430" y="621" as="sourcePoint" />
            <mxPoint x="1480" y="571" as="targetPoint" />
          </mxGeometry>
        </mxCell>
        <mxCell id="pif8Dmov2KubNqpBboYz-43" value="" style="endArrow=none;html=1;rounded=0;entryX=0.5;entryY=0;entryDx=0;entryDy=0;exitX=0.5;exitY=0;exitDx=0;exitDy=0;edgeStyle=orthogonalEdgeStyle;" parent="1" source="pif8Dmov2KubNqpBboYz-23" target="pif8Dmov2KubNqpBboYz-77" edge="1">
          <mxGeometry width="50" height="50" relative="1" as="geometry">
            <mxPoint x="1406" y="621" as="sourcePoint" />
            <mxPoint x="1456" y="571" as="targetPoint" />
          </mxGeometry>
        </mxCell>
        <mxCell id="pif8Dmov2KubNqpBboYz-101" value="FMU" style="rounded=1;whiteSpace=wrap;html=1;verticalAlign=middle;fontSize=14;strokeColor=#999999;strokeWidth=2;" parent="1" vertex="1">
          <mxGeometry x="1090" y="493" width="110" height="55" as="geometry" />
        </mxCell>
        <mxCell id="pif8Dmov2KubNqpBboYz-125" value="" style="rounded=0;whiteSpace=wrap;html=1;fillColor=#cdeb8b;strokeColor=#000000;strokeWidth=1;" parent="1" vertex="1">
          <mxGeometry x="1137" y="543" width="10" height="10" as="geometry" />
        </mxCell>
        <mxCell id="pif8Dmov2KubNqpBboYz-126" value="" style="endArrow=none;html=1;rounded=0;exitX=0.5;exitY=0;exitDx=0;exitDy=0;entryX=0.5;entryY=1;entryDx=0;entryDy=0;" parent="1" source="pif8Dmov2KubNqpBboYz-119" target="pif8Dmov2KubNqpBboYz-16" edge="1">
          <mxGeometry width="50" height="50" relative="1" as="geometry">
            <mxPoint x="1246" y="575" as="sourcePoint" />
            <mxPoint x="1296" y="525" as="targetPoint" />
          </mxGeometry>
        </mxCell>
        <mxCell id="pif8Dmov2KubNqpBboYz-127" value="" style="endArrow=none;html=1;rounded=0;entryX=0.5;entryY=1;entryDx=0;entryDy=0;exitX=0.5;exitY=0;exitDx=0;exitDy=0;edgeStyle=orthogonalEdgeStyle;" parent="1" source="pif8Dmov2KubNqpBboYz-123" target="pif8Dmov2KubNqpBboYz-125" edge="1">
          <mxGeometry width="50" height="50" relative="1" as="geometry">
            <mxPoint x="1246" y="575" as="sourcePoint" />
            <mxPoint x="1296" y="525" as="targetPoint" />
          </mxGeometry>
        </mxCell>
        <mxCell id="pif8Dmov2KubNqpBboYz-128" value="" style="endArrow=none;html=1;rounded=0;entryX=1;entryY=0.5;entryDx=0;entryDy=0;exitX=0.5;exitY=0;exitDx=0;exitDy=0;edgeStyle=orthogonalEdgeStyle;" parent="1" source="pif8Dmov2KubNqpBboYz-118" target="pif8Dmov2KubNqpBboYz-18" edge="1">
          <mxGeometry width="50" height="50" relative="1" as="geometry">
            <mxPoint x="1241" y="607" as="sourcePoint" />
            <mxPoint x="1152" y="562" as="targetPoint" />
          </mxGeometry>
        </mxCell>
        <mxCell id="pif8Dmov2KubNqpBboYz-130" value="point-to-point" style="text;align=center;verticalAlign=middle;resizable=0;points=[];autosize=1;strokeColor=none;fillColor=none;fontSize=8;" parent="1" vertex="1">
          <mxGeometry x="1344" y="621" width="70" height="20" as="geometry" />
        </mxCell>
        <mxCell id="pif8Dmov2KubNqpBboYz-72" value="" style="rounded=0;whiteSpace=wrap;html=1;" parent="1" vertex="1">
          <mxGeometry x="1504.5" y="601" width="10" height="8.333333333333332" as="geometry" />
        </mxCell>
        <mxCell id="pif8Dmov2KubNqpBboYz-73" value="" style="rounded=0;whiteSpace=wrap;html=1;fillColor=#dae8fc;strokeColor=#6c8ebf;" parent="1" vertex="1">
          <mxGeometry x="1498" y="600" width="40" height="25" as="geometry" />
        </mxCell>
        <mxCell id="pif8Dmov2KubNqpBboYz-74" value="" style="endArrow=none;html=1;rounded=0;dashed=1;" parent="1" edge="1">
          <mxGeometry width="50" height="50" relative="1" as="geometry">
            <mxPoint x="1501.5" y="617.6666666666666" as="sourcePoint" />
            <mxPoint x="1535.5" y="617.6666666666666" as="targetPoint" />
          </mxGeometry>
        </mxCell>
        <mxCell id="pif8Dmov2KubNqpBboYz-75" value="" style="endArrow=none;html=1;rounded=0;exitX=0.5;exitY=1;exitDx=0;exitDy=0;dashed=1;" parent="1" source="pif8Dmov2KubNqpBboYz-77" edge="1">
          <mxGeometry width="50" height="50" relative="1" as="geometry">
            <mxPoint x="1509.44" y="609.3333333333334" as="sourcePoint" />
            <mxPoint x="1509.5" y="617.6666666666666" as="targetPoint" />
            <Array as="points">
              <mxPoint x="1509.44" y="617.6666666666666" />
            </Array>
          </mxGeometry>
        </mxCell>
        <mxCell id="pif8Dmov2KubNqpBboYz-76" value="" style="rounded=0;whiteSpace=wrap;html=1;fillColor=#cdeb8b;strokeColor=#36393d;" parent="1" vertex="1">
          <mxGeometry x="1522" y="594" width="10" height="10" as="geometry" />
        </mxCell>
        <mxCell id="pif8Dmov2KubNqpBboYz-77" value="" style="rounded=0;whiteSpace=wrap;html=1;fillColor=#cdeb8b;strokeColor=#36393d;" parent="1" vertex="1">
          <mxGeometry x="1504.5" y="594" width="10" height="10" as="geometry" />
        </mxCell>
        <mxCell id="pif8Dmov2KubNqpBboYz-78" value="" style="endArrow=none;html=1;rounded=0;exitX=0.5;exitY=1;exitDx=0;exitDy=0;dashed=1;" parent="1" edge="1">
          <mxGeometry width="50" height="50" relative="1" as="geometry">
            <mxPoint x="1527" y="604.3333333333334" as="sourcePoint" />
            <mxPoint x="1527" y="617.6666666666666" as="targetPoint" />
            <Array as="points">
              <mxPoint x="1526.94" y="617.6666666666666" />
            </Array>
          </mxGeometry>
        </mxCell>
        <mxCell id="pif8Dmov2KubNqpBboYz-79" value="point-to-point" style="text;html=1;align=center;verticalAlign=middle;resizable=0;points=[];autosize=1;strokeColor=none;fillColor=none;fontSize=8;" parent="1" vertex="1">
          <mxGeometry x="1483" y="621" width="70" height="20" as="geometry" />
        </mxCell>
        <mxCell id="pif8Dmov2KubNqpBboYz-114" value="" style="rounded=0;whiteSpace=wrap;html=1;" parent="1" vertex="1">
          <mxGeometry x="1244.5" y="604" width="10" height="8.333333333333332" as="geometry" />
        </mxCell>
        <mxCell id="pif8Dmov2KubNqpBboYz-115" value="" style="rounded=0;whiteSpace=wrap;html=1;fillColor=#dae8fc;strokeColor=#6c8ebf;" parent="1" vertex="1">
          <mxGeometry x="1221" y="603" width="57" height="25" as="geometry" />
        </mxCell>
        <mxCell id="pif8Dmov2KubNqpBboYz-116" value="" style="endArrow=none;html=1;rounded=0;dashed=1;exitX=0.699;exitY=-0.043;exitDx=0;exitDy=0;exitPerimeter=0;" parent="1" edge="1">
          <mxGeometry width="50" height="50" relative="1" as="geometry">
            <mxPoint x="1225" y="620.71" as="sourcePoint" />
            <mxPoint x="1273.57" y="620.6666666666666" as="targetPoint" />
          </mxGeometry>
        </mxCell>
        <mxCell id="pif8Dmov2KubNqpBboYz-117" value="" style="endArrow=none;html=1;rounded=0;exitX=0.5;exitY=1;exitDx=0;exitDy=0;dashed=1;" parent="1" source="pif8Dmov2KubNqpBboYz-119" edge="1">
          <mxGeometry width="50" height="50" relative="1" as="geometry">
            <mxPoint x="1249.44" y="612.3333333333334" as="sourcePoint" />
            <mxPoint x="1249.5" y="620.6666666666666" as="targetPoint" />
            <Array as="points">
              <mxPoint x="1249.44" y="620.6666666666666" />
            </Array>
          </mxGeometry>
        </mxCell>
        <mxCell id="pif8Dmov2KubNqpBboYz-118" value="" style="rounded=0;whiteSpace=wrap;html=1;fillColor=#cdeb8b;strokeColor=#36393d;" parent="1" vertex="1">
          <mxGeometry x="1262" y="597" width="10" height="10" as="geometry" />
        </mxCell>
        <mxCell id="pif8Dmov2KubNqpBboYz-119" value="" style="rounded=0;whiteSpace=wrap;html=1;fillColor=#cdeb8b;strokeColor=#36393d;" parent="1" vertex="1">
          <mxGeometry x="1244.5" y="597" width="10" height="10" as="geometry" />
        </mxCell>
        <mxCell id="pif8Dmov2KubNqpBboYz-120" value="" style="endArrow=none;html=1;rounded=0;exitX=0.5;exitY=1;exitDx=0;exitDy=0;dashed=1;" parent="1" edge="1">
          <mxGeometry width="50" height="50" relative="1" as="geometry">
            <mxPoint x="1267" y="607.3333333333334" as="sourcePoint" />
            <mxPoint x="1267" y="620.6666666666666" as="targetPoint" />
            <Array as="points">
              <mxPoint x="1266.94" y="620.6666666666666" />
            </Array>
          </mxGeometry>
        </mxCell>
        <mxCell id="pif8Dmov2KubNqpBboYz-121" value="" style="endArrow=none;html=1;rounded=0;exitX=0.5;exitY=1;exitDx=0;exitDy=0;dashed=1;" parent="1" edge="1">
          <mxGeometry width="50" height="50" relative="1" as="geometry">
            <mxPoint x="1231" y="607" as="sourcePoint" />
            <mxPoint x="1231" y="621" as="targetPoint" />
          </mxGeometry>
        </mxCell>
        <mxCell id="pif8Dmov2KubNqpBboYz-122" value="" style="endArrow=none;html=1;rounded=0;exitX=0.5;exitY=1;exitDx=0;exitDy=0;dashed=1;" parent="1" target="pif8Dmov2KubNqpBboYz-123" edge="1">
          <mxGeometry width="50" height="50" relative="1" as="geometry">
            <mxPoint x="1232.56" y="607" as="sourcePoint" />
            <mxPoint x="1232.06" y="620.6666666666666" as="targetPoint" />
            <Array as="points" />
          </mxGeometry>
        </mxCell>
        <mxCell id="pif8Dmov2KubNqpBboYz-123" value="" style="rounded=0;whiteSpace=wrap;html=1;fillColor=#cdeb8b;strokeColor=#36393d;" parent="1" vertex="1">
          <mxGeometry x="1226" y="597" width="10" height="10" as="geometry" />
        </mxCell>
        <mxCell id="pif8Dmov2KubNqpBboYz-124" value="multidrop" style="text;html=1;align=center;verticalAlign=middle;resizable=0;points=[];autosize=1;strokeColor=none;fillColor=none;fontSize=8;" parent="1" vertex="1">
          <mxGeometry x="1220" y="624" width="60" height="20" as="geometry" />
        </mxCell>
        <mxCell id="pif8Dmov2KubNqpBboYz-22" value="" style="rounded=0;whiteSpace=wrap;html=1;fillColor=#fff2cc;strokeColor=#d6b656;rotation=-180;container=0;" parent="1" vertex="1">
          <mxGeometry x="1425.7450980392157" y="598" width="40" height="25" as="geometry" />
        </mxCell>
        <mxCell id="pif8Dmov2KubNqpBboYz-23" value="" style="rounded=0;whiteSpace=wrap;html=1;fillColor=#cdeb8b;strokeColor=#36393d;rotation=-360;container=0;" parent="1" vertex="1">
          <mxGeometry x="1449.9974509803922" y="593" width="10" height="10" as="geometry" />
        </mxCell>
        <mxCell id="pif8Dmov2KubNqpBboYz-24" value="" style="rounded=0;whiteSpace=wrap;html=1;fillColor=#cdeb8b;strokeColor=#36393d;rotation=-360;container=0;" parent="1" vertex="1">
          <mxGeometry x="1433.0025490196078" y="593" width="10" height="10" as="geometry" />
        </mxCell>
        <mxCell id="pif8Dmov2KubNqpBboYz-25" value="" style="endArrow=none;html=1;rounded=0;exitX=0.5;exitY=1;exitDx=0;exitDy=0;dashed=1;" parent="1" source="pif8Dmov2KubNqpBboYz-23" edge="1">
          <mxGeometry width="50" height="50" relative="1" as="geometry">
            <mxPoint x="1455.9411764705883" y="600" as="sourcePoint" />
            <mxPoint x="1455" y="608" as="targetPoint" />
            <Array as="points" />
          </mxGeometry>
        </mxCell>
        <mxCell id="pif8Dmov2KubNqpBboYz-26" value="" style="endArrow=none;html=1;rounded=0;dashed=1;exitX=0.5;exitY=1;exitDx=0;exitDy=0;" parent="1" source="pif8Dmov2KubNqpBboYz-24" edge="1">
          <mxGeometry width="50" height="50" relative="1" as="geometry">
            <mxPoint x="1438.6862745098038" y="600" as="sourcePoint" />
            <mxPoint x="1438" y="608" as="targetPoint" />
            <Array as="points" />
          </mxGeometry>
        </mxCell>
        <mxCell id="pif8Dmov2KubNqpBboYz-27" value="" style="endArrow=none;html=1;rounded=0;dashed=1;" parent="1" edge="1">
          <mxGeometry width="50" height="50" relative="1" as="geometry">
            <mxPoint x="1431.9998039215686" y="607" as="sourcePoint" />
            <mxPoint x="1438.039019607843" y="614" as="targetPoint" />
            <Array as="points">
              <mxPoint x="1438.039019607843" y="612" />
            </Array>
          </mxGeometry>
        </mxCell>
        <mxCell id="pif8Dmov2KubNqpBboYz-28" value="" style="ellipse;whiteSpace=wrap;html=1;rotation=-360;container=0;" parent="1" vertex="1">
          <mxGeometry x="1436.9990196078431" y="615" width="1.9411764705882353" height="2" as="geometry" />
        </mxCell>
        <mxCell id="pif8Dmov2KubNqpBboYz-29" value="" style="endArrow=none;html=1;rounded=0;dashed=1;exitX=-1.065;exitY=0.469;exitDx=0;exitDy=0;exitPerimeter=0;entryX=0.033;entryY=0.281;entryDx=0;entryDy=0;entryPerimeter=0;" parent="1" source="pif8Dmov2KubNqpBboYz-28" target="pif8Dmov2KubNqpBboYz-22" edge="1">
          <mxGeometry width="50" height="50" relative="1" as="geometry">
            <mxPoint x="2484" y="1227" as="sourcePoint" />
            <mxPoint x="2512.5686274509803" y="1227" as="targetPoint" />
            <Array as="points">
              <mxPoint x="1438" y="616" />
            </Array>
          </mxGeometry>
        </mxCell>
        <mxCell id="pif8Dmov2KubNqpBboYz-30" value="" style="ellipse;whiteSpace=wrap;html=1;rotation=-360;strokeWidth=1;container=0;" parent="1" vertex="1">
          <mxGeometry x="1454.0011764705882" y="615" width="1.9411764705882353" height="2" as="geometry" />
        </mxCell>
        <mxCell id="pif8Dmov2KubNqpBboYz-31" value="" style="endArrow=none;html=1;rounded=0;dashed=1;" parent="1" edge="1">
          <mxGeometry width="50" height="50" relative="1" as="geometry">
            <mxPoint x="1448.9998039215686" y="607" as="sourcePoint" />
            <mxPoint x="1455" y="614" as="targetPoint" />
            <Array as="points">
              <mxPoint x="1455.039019607843" y="612" />
            </Array>
          </mxGeometry>
        </mxCell>
        <mxCell id="pif8Dmov2KubNqpBboYz-131" value="switch" style="text;html=1;align=center;verticalAlign=middle;resizable=0;points=[];autosize=1;strokeColor=none;fillColor=none;fontSize=8;container=0;" parent="1" vertex="1">
          <mxGeometry x="1419.75" y="619" width="50" height="20" as="geometry" />
        </mxCell>
        <mxCell id="QHiEatF-c6lq1Nb1_73o-1" value="" style="rounded=0;whiteSpace=wrap;html=1;container=0;" vertex="1" parent="1">
          <mxGeometry x="1189" y="687" width="280" height="30" as="geometry" />
        </mxCell>
        <mxCell id="QHiEatF-c6lq1Nb1_73o-2" value="Bus Terminal" style="text;html=1;align=left;verticalAlign=middle;resizable=0;points=[];autosize=1;strokeColor=none;fillColor=none;fontSize=10;container=0;" vertex="1" parent="1">
          <mxGeometry x="1207.4096721311475" y="687" width="80" height="30" as="geometry" />
        </mxCell>
        <mxCell id="QHiEatF-c6lq1Nb1_73o-3" value="" style="rounded=0;whiteSpace=wrap;html=1;fillColor=#cdeb8b;strokeColor=#36393d;container=0;" vertex="1" parent="1">
          <mxGeometry x="1197.5900000000001" y="697.2941176470588" width="9.01639344262295" height="10.294117647058822" as="geometry" />
        </mxCell>
        <mxCell id="QHiEatF-c6lq1Nb1_73o-4" value="" style="rounded=0;whiteSpace=wrap;html=1;fillColor=#dae8fc;strokeColor=#6c8ebf;container=0;" vertex="1" parent="1">
          <mxGeometry x="1275" y="697.6423529411766" width="9.01639344262295" height="10.294117647058822" as="geometry" />
        </mxCell>
        <mxCell id="QHiEatF-c6lq1Nb1_73o-5" value="" style="rounded=0;whiteSpace=wrap;html=1;fillColor=#fff2cc;strokeColor=#d6b656;container=0;" vertex="1" parent="1">
          <mxGeometry x="1377" y="696.1705882352942" width="9.01639344262295" height="10.294117647058822" as="geometry" />
        </mxCell>
        <mxCell id="QHiEatF-c6lq1Nb1_73o-6" value="Switch Terminal" style="text;html=1;align=left;verticalAlign=middle;resizable=0;points=[];autosize=1;strokeColor=none;fillColor=none;fontSize=10;container=0;" vertex="1" parent="1">
          <mxGeometry x="1386.8196721311474" y="689.9941176470588" width="88" height="24" as="geometry" />
        </mxCell>
        <mxCell id="QHiEatF-c6lq1Nb1_73o-7" value="Segment Terminal" style="text;html=1;align=left;verticalAlign=middle;resizable=0;points=[];autosize=1;strokeColor=none;fillColor=none;fontSize=10;container=0;" vertex="1" parent="1">
          <mxGeometry x="1284.8196721311474" y="690.4364705882354" width="98" height="24" as="geometry" />
        </mxCell>
      </root>
    </mxGraphModel>
  </diagram>
</mxfile>
